<svg id="Camada_1" data-name="Camada 1" xmlns="http://www.w3.org/2000/svg" viewBox="0 0 1862.2 1494.58"><defs><style>.cls-1{fill:#fff;}</style></defs><path class="cls-1" d="M1502.25,1500.87v-77.55a15,15,0,0,1,15-15H1916a15,15,0,0,1,15,15v53.06a15,15,0,0,1-15,15H1786.51c-17.7,0-20.81,25.29-3.62,29.57L1919.67,1555a15,15,0,0,1,11.38,14.57V1573a15,15,0,0,1-11.35,14.56l-137.79,34.58c-17.16,4.31-14,29.57,3.65,29.57H1916a15,15,0,0,1,15,15v52.53a15,15,0,0,1-15,15H1517.26a15,15,0,0,1-15-15v-77a15,15,0,0,1,11-14.46l150.28-41.91c14.65-4.09,14.63-24.87,0-28.92l-150.22-41.52A15,15,0,0,1,1502.25,1500.87Z" transform="translate(-68.86 -239.75)"/><path class="cls-1" d="M1916,1354.72H1576.61a15,15,0,0,1-10.69-4.48L1506.57,1290a15,15,0,0,1-4.32-10.53V1113a15,15,0,0,1,15-15H1916a15,15,0,0,1,15,15v60a15,15,0,0,1-15,15h-111a15,15,0,0,0-15,15v46.09a15,15,0,0,0,15,15h111a15,15,0,0,1,15,15v60.57A15,15,0,0,1,1916,1354.72ZM1583.72,1203v46.09a15,15,0,0,0,15,15h94.87a15,15,0,0,0,15-15V1203a15,15,0,0,0-15-15h-94.87A15,15,0,0,0,1583.72,1203Z" transform="translate(-68.86 -239.75)"/><path class="cls-1" d="M1864.59,894.83H1916a15,15,0,0,1,15,15v119.53a15,15,0,0,1-15,15h-51.45a15,15,0,0,1-15-15h0a15,15,0,0,0-15-15H1598.73a15,15,0,0,0-15,15h0a15,15,0,0,1-15,15h-51.46a15,15,0,0,1-15-15V909.84a15,15,0,0,1,15-15h51.46a15,15,0,0,1,15,15h0a15,15,0,0,0,15,15h235.84a15,15,0,0,0,15-15h0A15,15,0,0,1,1864.59,894.83Z" transform="translate(-68.86 -239.75)"/><path class="cls-1" d="M1931.05,624.69V826.22a15,15,0,0,1-15,15H1812.6a15,15,0,0,1-15-15V767.8a15,15,0,0,1,15-15h22.51a15,15,0,0,0,15-15V713.13a15,15,0,0,0-15-15h-46.18A15,15,0,0,0,1777,704l-98.19,128.63a15,15,0,0,1-11.93,5.9H1517.26a15,15,0,0,1-15-15V627.37a15,15,0,0,1,15-15h97.55a15,15,0,0,1,15,15v49.85a15,15,0,0,1-15,15h-15.54a15,15,0,0,0-15,15V735.1a15,15,0,0,0,15,15h33.33a15,15,0,0,0,11.91-5.87l98.72-128.69a15,15,0,0,1,11.91-5.87H1916A15,15,0,0,1,1931.05,624.69Z" transform="translate(-68.86 -239.75)"/><path class="cls-1" d="M68.86,290V1512.72A50.12,50.12,0,0,0,119,1562.84H838.28c44.13,0,66.72-52.91,36.19-84.78L753.55,1351.82a50.14,50.14,0,0,0-36.2-15.45H345.45a50.12,50.12,0,0,1-50.12-50.12v-876a50.13,50.13,0,0,0-15.55-36.29L153.54,253.68C121.64,223.28,68.86,245.9,68.86,290Z" transform="translate(-68.86 -239.75)"/><path class="cls-1" d="M1199.7,1059H686.07A50.11,50.11,0,0,1,636,1008.9V886.17A50.11,50.11,0,0,1,686,836.06l532.59-.52A50.15,50.15,0,0,0,1253,821.87l131.86-124.48c33-31.13,11-86.56-34.4-86.56H459.59A50.11,50.11,0,0,0,409.48,661v575.49a50.11,50.11,0,0,0,50.11,50.12h790.23V1109.13A50.12,50.12,0,0,0,1199.7,1059Z" transform="translate(-68.86 -239.75)"/><path class="cls-1" d="M1426.4,1286.56H1249.82v171.76a50.12,50.12,0,0,1-50.07,50.12l-269.2.26a6.67,6.67,0,0,0-6,9.38c13.45,31.13-8.52,69.76-46.23,69.76H575.66a29.15,29.15,0,0,0-20,8l-54.85,52c-33,31.13-10.94,86.56,34.41,86.56H1426a50.12,50.12,0,0,0,50.12-50.12l.39-347.53A50.12,50.12,0,0,0,1426.4,1286.56Z" transform="translate(-68.86 -239.75)"/></svg>