<svg id="Camada_1" data-name="Camada 1" xmlns="http://www.w3.org/2000/svg" viewBox="0 0 1894.18 1576.74"><defs><style>.cls-1{fill:#d5ad00;}.cls-2{fill:#2d006b;}</style></defs><path class="cls-1" d="M1502,1501.33v-77.55a15,15,0,0,1,15-15h398.78a15,15,0,0,1,15,15v53.06a15,15,0,0,1-15,15H1786.25c-17.71,0-20.81,25.29-3.62,29.57l136.78,34.06a15,15,0,0,1,11.38,14.56v3.37a15,15,0,0,1-11.35,14.56l-137.79,34.58c-17.16,4.31-14,29.57,3.65,29.57h130.48a15,15,0,0,1,15,15v52.53a15,15,0,0,1-15,15H1517a15,15,0,0,1-15-15v-77a15,15,0,0,1,11-14.46l150.28-41.91c14.65-4.09,14.63-24.87,0-28.93L1513,1515.8A15,15,0,0,1,1502,1501.33Z" transform="translate(-36.61 -158.05)"/><path class="cls-1" d="M1915.78,1355.17H1576.35a15.05,15.05,0,0,1-10.7-4.47l-59.34-60.29a15,15,0,0,1-4.32-10.53V1113.44a15,15,0,0,1,15-15h398.78a15,15,0,0,1,15,15v60a15,15,0,0,1-15,15h-111a15,15,0,0,0-15,15v46.09a15,15,0,0,0,15,15h111a15,15,0,0,1,15,15v60.57A15,15,0,0,1,1915.78,1355.17Zm-332.32-151.68v46.09a15,15,0,0,0,15,15h94.87a15,15,0,0,0,15-15v-46.09a15,15,0,0,0-15-15h-94.87A15,15,0,0,0,1583.46,1203.49Z" transform="translate(-36.61 -158.05)"/><path class="cls-1" d="M1864.33,895.29h51.45a15,15,0,0,1,15,15v119.53a15,15,0,0,1-15,15h-51.45a15,15,0,0,1-15-15h0a15,15,0,0,0-15-15H1598.47a15,15,0,0,0-15,15h0a15,15,0,0,1-15,15H1517a15,15,0,0,1-15-15V910.3a15,15,0,0,1,15-15h51.46a15,15,0,0,1,15,15h0a15,15,0,0,0,15,15h235.84a15,15,0,0,0,15-15h0A15,15,0,0,1,1864.33,895.29Z" transform="translate(-36.61 -158.05)"/><path class="cls-1" d="M1930.79,625.15V826.68a15,15,0,0,1-15,15H1812.34a15,15,0,0,1-15-15V768.26a15,15,0,0,1,15-15h22.51a15,15,0,0,0,15-15V713.59a15,15,0,0,0-15-15h-46.18a15,15,0,0,0-11.93,5.9l-98.19,128.63a15,15,0,0,1-11.93,5.9H1517a15,15,0,0,1-15-15V627.83a15,15,0,0,1,15-15h97.55a15,15,0,0,1,15,15v49.85a15,15,0,0,1-15,15H1599a15,15,0,0,0-15,15v27.87a15,15,0,0,0,15,15h33.33a15,15,0,0,0,11.91-5.87L1743,616a15,15,0,0,1,11.91-5.87h160.9A15,15,0,0,1,1930.79,625.15Z" transform="translate(-36.61 -158.05)"/><path class="cls-2" d="M500.52,1648.22c-33,31.13-10.95,86.57,34.4,86.57h890.83a50.12,50.12,0,0,0,50.12-50.12l.39-347.53a50.12,50.12,0,0,0-50.12-50.12H459.33a50.11,50.11,0,0,1-50.11-50.12V661.41a50.11,50.11,0,0,1,50.11-50.12h890.83c45.35,0,67.38,55.43,34.4,86.56L1252.7,822.32A50.16,50.16,0,0,1,1218.34,836l-532.58.51a50.12,50.12,0,0,0-50.07,50.12v122.73a50.12,50.12,0,0,0,50.12,50.11h513.63a50.12,50.12,0,0,1,50.12,50.12v349.19a50.12,50.12,0,0,1-50.07,50.12l-532.5.52a50.17,50.17,0,0,0-34.46,13.78Z" transform="translate(-36.61 -158.05)"/><path class="cls-1" d="M68.6,290.42V1513.18a50.11,50.11,0,0,0,50.11,50.12H838c44.13,0,66.72-52.91,36.19-84.78L753.28,1352.28a50.1,50.1,0,0,0-36.19-15.45H345.19a50.12,50.12,0,0,1-50.12-50.12v-876a50.13,50.13,0,0,0-15.55-36.29L153.28,254.13C121.38,223.74,68.6,246.36,68.6,290.42Z" transform="translate(-36.61 -158.05)"/><path class="cls-1" d="M36.61,213.29v1345a55.13,55.13,0,0,0,55.13,55.13H883c48.54,0,73.39-58.21,39.81-93.27l-133-138.86a55.11,55.11,0,0,0-39.81-17H340.87a55.13,55.13,0,0,1-55.13-55.13V345.57a55.13,55.13,0,0,0-17.11-39.91L129.77,173.37C94.67,139.94,36.61,164.81,36.61,213.29Z" transform="translate(-36.61 -158.05)"/></svg>